<svg width="1440" height="576" viewBox="0 0 1440 576" fill="none" xmlns="http://www.w3.org/2000/svg">
<path fill-rule="evenodd" clip-rule="evenodd" d="M0 319L60 348C120 376 240 434 360 448C480 463 600 434 720 391C840 348 960 290 1080 254C1200 218 1320 204 1380 196L1440 189V578H1380C1320 578 1200 578 1080 578C960 578 840 578 720 578C600 578 480 578 360 578C240 578 120 578 60 578H0V319Z" fill="#48858F" fill-opacity="0.42"/>
<path fill-rule="evenodd" clip-rule="evenodd" d="M0 192.494L60 235.434C120 276.895 240 362.776 360 383.506C480 405.717 600 362.776 720 299.105C840 235.434 960 149.553 1080 96.2468C1200 42.9409 1320 22.2108 1380 10.365L1440 0V576H1380C1320 576 1200 576 1080 576C960 576 840 576 720 576C600 576 480 576 360 576C240 576 120 576 60 576H0V192.494Z" fill="#48858F" fill-opacity="0.42"/>
</svg>
