<svg width="63" height="71" viewBox="0 0 63 71" fill="none" xmlns="http://www.w3.org/2000/svg">
<path d="M27.3281 43.4541C27.4348 43.1724 27.8452 42.8429 28.1616 42.7765C27.8022 42.8361 27.4446 43.1272 27.3281 43.4541ZM57.9814 35.7746C57.9841 33.8611 57.9957 31.9484 58.0208 30.0366C57.9939 31.9969 57.9832 33.8951 57.9814 35.7746ZM58.0154 49.5181C57.9948 50.0594 57.8711 50.594 57.6471 51.0928C57.7573 50.8604 57.8613 50.6238 57.9599 50.3829C58.0127 50.2535 58.0163 50.0994 58.0163 49.9573C58.0163 49.8109 58.0163 49.6645 58.0154 49.5181Z" fill="#34656D"/>
<path d="M62.9946 50.1385C62.9874 52.2367 61.9326 54.0864 60.668 55.7897C59.744 57.035 58.5296 57.9492 57.1414 58.7008C50.3526 62.3737 43.6283 66.1581 36.7758 69.7204C36.7202 69.7494 36.6638 69.7775 36.6082 69.8055C33.3487 71.4313 29.4421 71.3956 26.2067 69.7094C25.2818 69.2276 24.3569 68.7432 23.4347 68.2572C22.1576 67.5839 20.8832 66.9072 19.6115 66.2262C19.1714 65.9913 18.7323 65.7555 18.294 65.5189C17.8549 65.2831 17.4166 65.0465 16.9775 64.809C13.0324 62.675 9.11051 60.5019 5.21377 58.2913C1.81263 56.3617 0.0363316 53.2446 0.0112376 49.4712C-0.0362618 42.0674 0.0784549 34.662 0.138501 27.2574C0.168973 23.4789 1.60292 20.3499 5.05872 18.296C8.40161 16.3093 11.8162 14.429 15.2021 12.5078C15.3482 12.4244 15.5265 12.392 15.7568 12.312C15.2621 14.0212 14.6975 15.6002 14.3731 17.2234C14.1517 18.3257 13.6489 19.0212 12.5977 19.4961C11.412 20.0307 10.2756 20.6666 9.13202 21.282C7.23742 22.3017 5.67532 23.616 5.09368 25.7074C4.96641 26.167 4.99868 26.6726 4.99778 27.157C4.99151 34.7343 4.96821 42.3117 5.02556 49.8883C5.02556 49.9113 5.02646 49.9351 5.02736 49.9572C5.05783 50.9965 5.44947 51.4102 5.8465 52.0503C10.2998 59.2106 19.1356 57.258 22.4991 52.6955C22.8907 52.1644 23.2707 51.6264 23.6346 51.0817C23.8174 50.8101 23.9958 50.536 24.1696 50.2603C25.5059 48.1442 26.6028 45.9123 27.3135 43.4949C27.3171 43.4813 27.3216 43.4677 27.3279 43.4541C27.448 43.117 27.8235 42.8191 28.1936 42.7705C28.2044 42.7688 28.2151 42.7671 28.2259 42.7663C29.5568 42.6437 30.9011 42.6199 32.24 42.6148C33.1139 42.6105 33.9993 42.6403 34.8561 42.7799C35.1769 42.8318 35.6116 43.1961 35.6914 43.4924C36.3573 45.9574 37.5779 48.1842 38.9186 50.3522C39.5693 51.4043 40.2549 52.4691 41.1117 53.3671C43.915 56.308 47.456 57.3865 51.4863 56.4119C51.5974 56.3846 51.7067 56.3566 51.8152 56.3259C51.8573 56.3148 51.8994 56.3021 51.9407 56.2902C51.9908 56.2757 52.0401 56.2604 52.0885 56.2451C52.1378 56.2297 52.1862 56.2144 52.2346 56.1982C52.2803 56.1829 52.3269 56.1676 52.3717 56.1514C52.4766 56.1148 52.5797 56.0765 52.6818 56.0365C52.7661 56.0042 52.8485 55.9701 52.931 55.9344C52.9776 55.9139 53.0242 55.8935 53.0708 55.8722C53.1604 55.8331 53.2482 55.7914 53.3352 55.748C53.3612 55.7352 53.3871 55.7224 53.4122 55.7096C53.4445 55.6935 53.4759 55.6773 53.5072 55.6611C53.5565 55.6347 53.6058 55.6092 53.6542 55.582C53.6883 55.5641 53.7223 55.5454 53.7555 55.5258C53.9509 55.4151 54.14 55.2977 54.3228 55.1734C54.3613 55.1479 54.3999 55.1206 54.4384 55.0934C54.476 55.067 54.5146 55.0397 54.5522 55.0117C54.5908 54.9844 54.6284 54.9572 54.6651 54.9282C54.6974 54.9036 54.7297 54.8789 54.7619 54.8542C54.813 54.8142 54.8641 54.7742 54.9134 54.7333C54.9457 54.7069 54.9788 54.6797 55.0102 54.6525C55.0765 54.598 55.141 54.5418 55.2038 54.4856C55.2629 54.432 55.3212 54.3784 55.3785 54.3239C55.3884 54.3154 55.3983 54.306 55.4081 54.2967C55.4493 54.2566 55.4906 54.2166 55.5309 54.1758C55.5802 54.1281 55.6286 54.0796 55.6743 54.0302C55.6868 54.0183 55.6985 54.0064 55.7092 53.9945C55.7612 53.94 55.8132 53.8847 55.8634 53.8285C56.0059 53.6719 56.143 53.5093 56.2738 53.3425C56.3231 53.282 56.3706 53.2199 56.4164 53.1577C56.4253 53.1475 56.4334 53.1365 56.4405 53.1254C56.4898 53.0616 56.5364 52.996 56.583 52.9305C56.5938 52.916 56.6046 52.9015 56.6144 52.8862C56.6494 52.8377 56.6825 52.7883 56.7157 52.739C56.7462 52.6955 56.7748 52.6521 56.8035 52.6079C56.8232 52.5789 56.842 52.55 56.86 52.521C56.8869 52.4802 56.9128 52.4385 56.9388 52.3968C56.9675 52.3517 56.9953 52.3065 57.0222 52.2606C57.0428 52.2291 57.0616 52.1967 57.0795 52.1652C57.1011 52.1312 57.1208 52.0963 57.1405 52.0623C57.171 52.0112 57.1996 51.9593 57.2292 51.9073C57.266 51.8418 57.3027 51.7754 57.3386 51.7081C57.3744 51.6409 57.4103 51.572 57.4461 51.503C57.4981 51.4017 57.5483 51.2996 57.5985 51.1966C57.5994 51.1949 57.6003 51.1932 57.6011 51.1915C57.8539 50.6654 57.9928 50.0951 58.0152 49.518C58.017 49.4993 58.017 49.4797 58.0179 49.461C58.0251 49.186 58.0197 48.9886 58.0152 48.8881C58.0152 44.9649 57.9865 41.3405 57.9811 37.6999C57.9802 37.059 57.9802 36.418 57.9811 35.7745C57.9829 33.8951 57.9937 31.9969 58.0206 30.0366V30.0161C58.026 29.6399 58.0313 29.2645 58.0376 28.8892C58.0439 28.5095 58.051 28.1273 58.0582 27.7417C58.1174 24.7557 56.6547 22.8907 54.1991 21.4692C52.8136 20.6674 51.3707 19.9541 49.9349 19.234C49.2368 18.885 48.9195 18.3862 48.7376 17.649C48.3253 15.9849 47.7733 14.3523 47.2803 12.7061C47.2534 12.6167 47.2445 12.5231 47.2095 12.3307C47.4551 12.4031 47.6514 12.4235 47.8055 12.5112C51.2353 14.4596 54.6974 16.3586 58.0743 18.3853C61.3868 20.372 62.8144 23.4091 62.8557 27.0412C62.9444 34.7403 63.0215 42.4394 62.9946 50.1385Z" fill="#34656D"/>
<path d="M46.5909 30.252C46.3346 29.9515 46.0442 29.5812 46.0057 29.2212C45.7099 26.4497 45.6033 23.6543 45.1892 20.9007C44.3656 15.4275 42.4164 10.3364 38.8413 5.90762C36.9306 3.54043 34.6632 1.51627 31.8679 0.0879593C31.6869 -0.00397048 31.3553 -0.0388698 31.2029 0.057316C29.9823 0.827653 28.7052 1.54436 27.601 2.44919C23.7186 5.63183 21.1787 9.67589 19.5189 14.2434C17.7812 19.0238 17.1135 23.971 17.0033 29.0058C16.9961 29.3523 16.8285 29.7515 16.6018 30.0273C15.7808 31.0215 15.1132 32.0821 14.8515 33.3308C14.1667 36.5968 14.76 39.7437 15.9081 42.8259C16.2361 43.7069 16.4064 43.7282 17.1529 43.1545C20.8471 40.3174 25.071 38.7376 29.8021 38.4005C34.3146 38.0788 38.5743 38.9478 42.5275 41.0375C43.6899 41.653 44.7644 42.4242 45.848 43.1647C46.5918 43.672 46.7379 43.6771 47.039 42.9587C47.9738 40.7294 48.3556 38.398 48.4613 36.1082C48.4255 33.9232 48.032 31.9399 46.5909 30.252ZM35.6401 16.3825C35.5012 18.4101 33.8163 20.0767 31.5309 20.0333C29.276 19.9899 27.1879 18.5531 27.3886 16.0676C27.1816 13.7242 29.4634 11.9741 31.5506 12.0065C33.4793 12.0354 35.8328 13.5897 35.6401 16.3825Z" fill="#34656D"/>
</svg>
